<svg width="637" height="121" viewBox="0 0 637 121" fill="none" xmlns="http://www.w3.org/2000/svg">
<g clip-path="url(#clip0_80_1003)">
<path fill-rule="evenodd" clip-rule="evenodd" d="M81.6502 74.7853C77.9955 73.9793 74.6974 72.2776 72.1124 70.2176L69.4383 74.0688C75.7671 78.9948 86.731 81.3235 94.5751 78.6366C103.489 76.2184 108.302 65.829 103.756 57.6788C98.4972 47.7372 84.8591 46.9312 77.9955 39.1392C75.3214 35.9149 76.0345 30.2724 79.5109 27.9437C82.4524 25.436 89.94 24.809 93.8621 26.3316C97.7841 27.4959 100.637 30.1828 103.756 32.2428V0H0V95.0266H38.151V121L60.168 103.266L57.4047 99.8631L42.5187 111.865V90.638H4.36775V4.3886H99.2995V23.7343C91.7227 19.7039 79.2435 19.883 73.8061 27.4064C69.26 33.5862 72.3799 42.0052 78.7086 45.5877C84.77 49.7972 93.6838 52.2154 98.5863 58.037C101.974 61.9778 101.35 68.3368 97.3384 72.188C94.5751 75.3227 85.9288 76.0392 81.6502 74.6958V74.7853Z" fill="#004F9F"/>
<path fill-rule="evenodd" clip-rule="evenodd" d="M46.7287 54.1565L56.1002 71.3061L69.0419 95.0102H91.355L116.078 113.686V95.0102H135V12.4048H109.563V16.8044H130.715V90.6106H111.705V104.887L92.8723 90.6106H71.7195L51.5483 53.9769C53.2441 53.7973 55.0292 53.1688 56.8143 52.0913C58.9563 50.8343 60.8306 49.0385 62.3479 46.6142C63.9545 44.1899 64.6685 41.1371 64.6685 37.5456C64.6685 33.954 63.8652 30.9012 62.2587 28.4769C60.7414 25.9629 58.5993 24.0773 56.1002 22.8203C53.5119 21.5632 50.7451 20.9347 47.7105 20.9347H29.5029V79.6564H33.9656V54.1565H46.818H46.7287ZM46.4609 50.116H33.8763V25.2445H46.4609C50.5666 25.2445 53.7797 26.2322 56.2787 28.2974C58.6886 30.2727 59.9381 33.3255 59.9381 37.6354C59.9381 41.9452 58.6886 45.0878 56.2787 47.0632C53.8689 49.1283 50.5666 50.116 46.4609 50.116Z" fill="#202125"/>
</g>
<path d="M615.572 65.1184C615.572 66.7865 615.916 68.2956 616.605 69.646C617.306 70.9963 618.266 72.0686 619.484 72.8629C620.702 73.6439 622.112 74.0345 623.714 74.0345C625.316 74.0345 626.726 73.6439 627.943 72.8629C629.175 72.0686 630.134 70.9963 630.823 69.646C631.511 68.2956 631.855 66.7865 631.855 65.1184C631.855 63.4504 631.511 61.9478 630.823 60.6107C630.134 59.2604 629.175 58.1881 627.943 57.3938C626.726 56.5995 625.316 56.2023 623.714 56.2023C622.112 56.2023 620.702 56.5995 619.484 57.3938C618.266 58.1881 617.306 59.2604 616.605 60.6107C615.916 61.9478 615.572 63.4504 615.572 65.1184ZM610.409 65.1184C610.409 63.2121 610.74 61.4381 611.402 59.7966C612.077 58.1418 613.017 56.6988 614.222 55.4676C615.427 54.2364 616.836 53.2767 618.452 52.5883C620.08 51.8999 621.834 51.5557 623.714 51.5557C625.62 51.5557 627.381 51.8999 628.996 52.5883C630.611 53.2767 632.014 54.2364 633.206 55.4676C634.41 56.6988 635.344 58.1418 636.006 59.7966C636.668 61.4381 636.999 63.2121 636.999 65.1184C636.999 67.038 636.674 68.8252 636.026 70.48C635.377 72.1215 634.457 73.5645 633.265 74.8089C632.074 76.0401 630.671 76.9999 629.055 77.6883C627.44 78.3767 625.66 78.7209 623.714 78.7209C621.741 78.7209 619.941 78.3767 618.313 77.6883C616.697 76.9999 615.294 76.0401 614.103 74.8089C612.924 73.5645 612.011 72.1215 611.362 70.48C610.727 68.8252 610.409 67.038 610.409 65.1184Z" fill="#004F9F"/>
<path d="M598.104 52.0322H603.069V78.2443H598.104V52.0322Z" fill="#004F9F"/>
<path d="M571.104 52.0322H578.332C581.125 52.0322 583.428 52.5949 585.242 53.7201C587.069 54.8322 588.433 56.3744 589.333 58.3469C590.233 60.3195 590.683 62.5766 590.683 65.1184C590.683 67.6734 590.233 69.9372 589.333 71.9097C588.433 73.8822 587.069 75.4311 585.242 76.5564C583.428 77.6816 581.125 78.2443 578.332 78.2443H571.104V52.0322ZM576.028 56.4605V73.816H577.895C579.603 73.816 581.006 73.4454 582.105 72.704C583.217 71.9494 584.044 70.9168 584.587 69.6062C585.143 68.2956 585.421 66.8129 585.421 65.1581C585.434 63.4901 585.169 62.0007 584.627 60.6901C584.084 59.3795 583.25 58.3469 582.124 57.5924C581.012 56.8378 579.603 56.4605 577.895 56.4605H576.028Z" fill="#004F9F"/>
<path d="M558.281 52.0322H563.246V68.1963C563.246 70.3542 562.815 72.2208 561.955 73.7962C561.108 75.3715 559.91 76.5895 558.361 77.45C556.825 78.2972 555.011 78.7209 552.92 78.7209C550.815 78.7209 548.981 78.2972 547.419 77.45C545.87 76.5895 544.666 75.3715 543.805 73.7962C542.958 72.2208 542.534 70.3542 542.534 68.1963V52.0322H547.479V67.9382C547.479 69.262 547.704 70.3939 548.154 71.3338C548.617 72.2605 549.259 72.9688 550.08 73.4586C550.901 73.9352 551.847 74.1735 552.92 74.1735C553.979 74.1735 554.912 73.9352 555.72 73.4586C556.527 72.9688 557.156 72.2605 557.606 71.3338C558.056 70.3939 558.281 69.262 558.281 67.9382V52.0322Z" fill="#004F9F"/>
<path d="M524.368 56.4208H517.795V52.0322H535.885V56.4208H529.332V78.2443H524.368V56.4208Z" fill="#004F9F"/>
<path d="M503.166 51.5557C504.741 51.5557 506.112 51.7344 507.277 52.0918C508.455 52.436 509.388 52.8067 510.077 53.2038C510.778 53.601 511.202 53.8591 511.347 53.9783L508.925 58.0094C508.713 57.8373 508.349 57.599 507.833 57.2945C507.33 56.9768 506.721 56.6988 506.006 56.4605C505.291 56.209 504.516 56.0832 503.682 56.0832C502.478 56.0832 501.511 56.3149 500.783 56.7782C500.068 57.2283 499.711 57.8836 499.711 58.7441C499.711 59.3266 499.903 59.8495 500.287 60.3129C500.671 60.763 501.233 61.1866 501.975 61.5838C502.729 61.9809 503.649 62.3979 504.735 62.8348C505.688 63.2055 506.595 63.6357 507.455 64.1255C508.329 64.6154 509.104 65.1912 509.779 65.8531C510.467 66.5151 511.01 67.2829 511.407 68.1566C511.817 69.0304 512.023 70.0299 512.023 71.1551C512.023 72.4128 511.764 73.5116 511.248 74.4515C510.745 75.3914 510.043 76.1791 509.143 76.8145C508.256 77.45 507.237 77.9266 506.085 78.2443C504.933 78.562 503.722 78.7209 502.451 78.7209C500.73 78.7209 499.181 78.5223 497.805 78.1252C496.441 77.7148 495.336 77.2779 494.488 76.8145C493.641 76.3512 493.145 76.0533 492.999 75.921L495.541 71.731C495.7 71.8501 495.998 72.0421 496.434 72.3069C496.884 72.5716 497.427 72.843 498.063 73.121C498.711 73.399 499.413 73.6373 500.168 73.8359C500.935 74.0345 501.717 74.1338 502.511 74.1338C503.941 74.1338 505.019 73.8359 505.748 73.2402C506.476 72.6444 506.84 71.87 506.84 70.9168C506.84 70.202 506.608 69.5731 506.145 69.0304C505.681 68.4876 505.026 67.9911 504.179 67.541C503.345 67.0777 502.345 66.6077 501.18 66.1312C500.015 65.6413 498.93 65.0721 497.924 64.4234C496.931 63.7615 496.13 62.9539 495.521 62.0008C494.912 61.0344 494.607 59.8495 494.607 58.4463C494.607 57.0562 494.998 55.8449 495.779 54.8123C496.573 53.7797 497.619 52.9788 498.917 52.4095C500.227 51.8403 501.644 51.5557 503.166 51.5557Z" fill="#004F9F"/>
<path d="M453.378 78.9873C449.72 78.9873 446.466 78.1664 443.614 76.5246C440.791 74.8828 438.573 72.6649 436.961 69.871C435.348 67.0482 434.541 63.8654 434.541 60.3226C434.541 56.7798 435.348 53.5826 436.961 50.731C438.573 47.8795 440.791 45.6184 443.614 43.9478C446.466 42.2772 449.72 41.4419 453.378 41.4419C457.008 41.4419 460.219 42.2772 463.013 43.9478C465.836 45.6184 468.039 47.8795 469.624 50.731C471.208 53.5826 472 56.7798 472 60.3226C472 63.8654 471.208 67.0482 469.624 69.871C468.039 72.6649 465.836 74.8828 463.013 76.5246C460.219 78.1664 457.008 78.9873 453.378 78.9873ZM453.378 72.5497C455.683 72.5497 457.685 72.0168 459.384 70.9511C461.112 69.8854 462.452 68.4308 463.402 66.5874C464.353 64.7151 464.828 62.6125 464.828 60.2794C464.828 57.9463 464.353 55.8437 463.402 53.9714C462.452 52.0992 461.112 50.6158 459.384 49.5213C457.685 48.4267 455.683 47.8795 453.378 47.8795C451.045 47.8795 449.015 48.4267 447.287 49.5213C445.558 50.6158 444.205 52.0992 443.225 53.9714C442.275 55.8437 441.8 57.9463 441.8 60.2794C441.8 62.6125 442.275 64.7151 443.225 66.5874C444.205 68.4308 445.558 69.8854 447.287 70.9511C449.015 72.0168 451.045 72.5497 453.378 72.5497Z" fill="#202125"/>
<path d="M402.736 42.4791H409.692V27.9189H417.167V42.4791H426.283V48.9167H417.167V66.458C417.167 68.5319 417.527 70.0585 418.247 71.0378C418.996 72.0171 419.99 72.5068 421.228 72.5068C422.323 72.5068 423.172 72.3052 423.777 71.9019C424.382 71.4987 424.742 71.225 424.857 71.081L427.839 76.6113C427.666 76.7553 427.205 77.0289 426.456 77.4322C425.707 77.8354 424.742 78.1955 423.561 78.5123C422.38 78.8292 420.998 78.9876 419.414 78.9876C416.648 78.9876 414.33 78.1523 412.458 76.4817C410.614 74.7823 409.692 72.1035 409.692 68.4455V48.9167H402.736V42.4791Z" fill="#202125"/>
<path d="M384.158 77.9506V42.479H391.676V77.9506H384.158ZM388.004 30.3383C386.65 30.3383 385.483 29.8631 384.504 28.9126C383.553 27.9333 383.078 26.7667 383.078 25.4129C383.078 24.0592 383.553 22.8926 384.504 21.9133C385.483 20.934 386.65 20.4443 388.004 20.4443C388.896 20.4443 389.717 20.6748 390.466 21.1356C391.244 21.5965 391.863 22.2014 392.324 22.9502C392.785 23.6703 393.015 24.4912 393.015 25.4129C393.015 26.7667 392.526 27.9333 391.546 28.9126C390.567 29.8631 389.386 30.3383 388.004 30.3383Z" fill="#202125"/>
<path d="M351.439 96.9175C348.645 96.9175 346.11 96.6294 343.835 96.0534C341.588 95.4773 339.615 94.6564 337.916 93.5907C336.245 92.5537 334.906 91.3296 333.898 89.9182L338.823 85.2088C339.37 85.9577 340.105 86.7498 341.027 87.5851C341.977 88.4492 343.259 89.1837 344.872 89.7886C346.485 90.3935 348.587 90.6959 351.18 90.6959C353.714 90.6959 355.86 90.1486 357.617 89.0541C359.374 87.9884 360.714 86.5338 361.635 84.6904C362.557 82.8469 363.018 80.7731 363.018 78.4688V77.3023H370.363V78.9441C370.363 82.8613 369.513 86.1449 367.814 88.7949C366.143 91.4736 363.882 93.4898 361.031 94.8436C358.179 96.2262 354.982 96.9175 351.439 96.9175ZM363.018 77.9503V71.0375C362.788 71.7576 362.111 72.7513 360.987 74.0187C359.893 75.286 358.381 76.4382 356.451 77.4751C354.55 78.4832 352.303 78.9873 349.711 78.9873C346.427 78.9873 343.446 78.2096 340.767 76.6542C338.117 75.0988 336 72.9241 334.416 70.1302C332.861 67.3074 332.083 64.0094 332.083 60.2362C332.083 56.4629 332.861 53.1793 334.416 50.3854C336 47.5626 338.117 45.3736 340.767 43.8182C343.446 42.234 346.427 41.4419 349.711 41.4419C352.274 41.4419 354.492 41.9028 356.364 42.8245C358.265 43.7462 359.778 44.8119 360.901 46.0217C362.053 47.2314 362.73 48.2683 362.932 49.1324V42.4788H370.363V77.9503H363.018ZM339.514 60.2362C339.514 62.7997 340.076 65.0176 341.199 66.8898C342.323 68.762 343.777 70.2166 345.563 71.2535C347.378 72.2617 349.308 72.7657 351.353 72.7657C353.542 72.7657 355.5 72.2473 357.228 71.2103C358.957 70.1734 360.325 68.7188 361.333 66.8466C362.341 64.9456 362.845 62.7421 362.845 60.2362C362.845 57.7303 362.341 55.5412 361.333 53.669C360.325 51.768 358.957 50.299 357.228 49.262C355.5 48.1963 353.542 47.6635 351.353 47.6635C349.308 47.6635 347.378 48.1819 345.563 49.2188C343.777 50.2558 342.323 51.7103 341.199 53.5826C340.076 55.4548 339.514 57.6727 339.514 60.2362Z" fill="#202125"/>
<path d="M304.953 78.9873C301.295 78.9873 298.04 78.1664 295.188 76.5246C292.366 74.8828 290.148 72.6649 288.535 69.871C286.922 67.0482 286.115 63.8654 286.115 60.3226C286.115 56.7798 286.922 53.5826 288.535 50.731C290.148 47.8795 292.366 45.6184 295.188 43.9478C298.04 42.2772 301.295 41.4419 304.953 41.4419C308.582 41.4419 311.794 42.2772 314.588 43.9478C317.41 45.6184 319.614 47.8795 321.198 50.731C322.782 53.5826 323.574 56.7798 323.574 60.3226C323.574 63.8654 322.782 67.0482 321.198 69.871C319.614 72.6649 317.41 74.8828 314.588 76.5246C311.794 78.1664 308.582 78.9873 304.953 78.9873ZM304.953 72.5497C307.257 72.5497 309.259 72.0168 310.958 70.9511C312.686 69.8854 314.026 68.4308 314.976 66.5874C315.927 64.7151 316.402 62.6125 316.402 60.2794C316.402 57.9463 315.927 55.8437 314.976 53.9714C314.026 52.0992 312.686 50.6158 310.958 49.5213C309.259 48.4267 307.257 47.8795 304.953 47.8795C302.62 47.8795 300.589 48.4267 298.861 49.5213C297.133 50.6158 295.779 52.0992 294.799 53.9714C293.849 55.8437 293.374 57.9463 293.374 60.2794C293.374 62.6125 293.849 64.7151 294.799 66.5874C295.779 68.4308 297.133 69.8854 298.861 70.9511C300.589 72.0168 302.62 72.5497 304.953 72.5497Z" fill="#202125"/>
<path d="M266.802 72.7657C269.049 72.7657 270.863 72.4057 272.246 71.6856C273.629 70.9655 274.493 70.447 274.838 70.1302L278.511 75.5309C278.223 75.7901 277.531 76.2077 276.437 76.7838C275.371 77.3311 273.989 77.8351 272.289 78.296C270.619 78.7569 268.718 78.9873 266.586 78.9873C263.331 78.9873 260.307 78.2672 257.513 76.827C254.719 75.358 252.458 73.2266 250.73 70.4326C249.03 67.6387 248.181 64.2255 248.181 60.193C248.181 56.1317 249.03 52.7185 250.73 49.9533C252.458 47.1594 254.719 45.0423 257.513 43.6022C260.307 42.162 263.331 41.4419 266.586 41.4419C268.689 41.4419 270.561 41.7011 272.203 42.2196C273.845 42.7092 275.198 43.2565 276.264 43.8614C277.33 44.4663 278.036 44.9271 278.381 45.244L274.665 50.6446C274.435 50.4142 273.989 50.0685 273.326 49.6077C272.692 49.118 271.828 48.6716 270.734 48.2683C269.639 47.8651 268.329 47.6635 266.802 47.6635C264.959 47.6635 263.158 48.1675 261.401 49.1756C259.673 50.155 258.247 51.5807 257.124 53.453C256.001 55.3252 255.439 57.5719 255.439 60.193C255.439 62.8141 256.001 65.0752 257.124 66.9762C258.247 68.8484 259.673 70.2886 261.401 71.2967C263.158 72.2761 264.959 72.7657 266.802 72.7657Z" fill="#202125"/>
<path d="M211.017 61.7484C211.046 63.8798 211.507 65.8241 212.4 67.5811C213.293 69.3381 214.618 70.7351 216.375 71.772C218.161 72.8089 220.35 73.3274 222.942 73.3274C225.131 73.3274 226.989 73.0106 228.515 72.3769C230.071 71.7144 231.338 70.9367 232.318 70.0438C233.297 69.1221 234.003 68.3012 234.435 67.5811L238.107 72.1176C237.156 73.5002 235.99 74.71 234.607 75.7469C233.254 76.7838 231.597 77.5759 229.639 78.1232C227.68 78.6992 225.289 78.9873 222.467 78.9873C218.665 78.9873 215.367 78.1808 212.573 76.5678C209.808 74.926 207.676 72.6649 206.178 69.7846C204.681 66.8754 203.932 63.5486 203.932 59.8041C203.932 56.3477 204.637 53.2369 206.049 50.4718C207.46 47.6779 209.505 45.4744 212.184 43.8614C214.891 42.2484 218.146 41.4419 221.948 41.4419C225.433 41.4419 228.458 42.1764 231.021 43.6454C233.614 45.0855 235.616 47.1306 237.027 49.7805C238.467 52.4304 239.187 55.5988 239.187 59.2857C239.187 59.5161 239.173 59.9338 239.144 60.5386C239.115 61.1147 239.086 61.518 239.058 61.7484H211.017ZM232.015 56.0885C231.986 54.9075 231.641 53.6114 230.978 52.2C230.344 50.7886 229.308 49.5789 227.867 48.5708C226.427 47.5626 224.483 47.0586 222.035 47.0586C219.5 47.0586 217.455 47.5482 215.9 48.5276C214.373 49.5069 213.25 50.7022 212.529 52.1136C211.809 53.4962 211.392 54.8211 211.277 56.0885H232.015Z" fill="#202125"/>
<path d="M156 20.9199H175.918C179 20.9199 181.794 21.568 184.299 22.8642C186.834 24.1315 188.85 26.0037 190.348 28.4808C191.875 30.9291 192.638 33.9247 192.638 37.4675C192.638 40.9816 191.932 43.8907 190.521 46.195C189.138 48.4993 187.468 50.2419 185.509 51.4228C183.551 52.575 181.736 53.2087 180.065 53.3239L194.193 77.9509H185.812L172.591 53.8423H163.388V77.9509H156V20.9199ZM163.388 48.3553H173.325C176.724 48.3553 179.532 47.5056 181.75 45.8062C183.968 44.1068 185.077 41.3848 185.077 37.6404C185.077 33.8959 183.968 31.2028 181.75 29.561C179.561 27.9192 176.767 27.0983 173.369 27.0983H163.388V48.3553Z" fill="#202125"/>
<defs>
<clipPath id="clip0_80_1003">
<rect width="135" height="121" fill="white"/>
</clipPath>
</defs>
</svg>
