<svg width="151" height="135" viewBox="0 0 151 135" fill="none" xmlns="http://www.w3.org/2000/svg">
    <path fill-rule="evenodd" clip-rule="evenodd"
        d="M91.3272 83.4382C87.2394 82.5389 83.5505 80.6403 80.6591 78.342L77.668 82.6388C84.7469 88.1347 97.0103 90.7328 105.784 87.735C115.754 85.037 121.138 73.4456 116.053 64.3523C110.171 53.2606 94.9165 52.3612 87.2394 43.6677C84.2484 40.0703 85.046 33.775 88.9344 31.1769C92.2246 28.379 100.6 27.6795 104.986 29.3782C109.373 30.6773 112.564 33.6751 116.053 35.9734V0H0V106.021H42.6726V135L67.299 115.215L64.2082 111.417L47.558 124.808V101.125H4.88541V4.89637H111.068V26.4804C102.594 21.9837 88.6353 22.1836 82.5534 30.5773C77.4686 37.4722 80.9582 46.8653 88.0371 50.8623C94.8168 55.5588 104.787 58.2568 110.271 64.752C114.059 69.1488 113.361 76.2435 108.875 80.5403C105.784 84.0377 96.1129 84.8372 91.3272 83.3383V83.4382Z"
        fill="#004F9F" />
    <path fill-rule="evenodd" clip-rule="evenodd"
        d="M52.2673 60.4223L62.7496 79.5562L77.225 106.003H102.183L129.836 126.84V106.003H151V13.8398H122.548V18.7485H146.208V101.094H124.944V117.022L103.88 101.094H80.22L57.6582 60.2219C59.555 60.0216 61.5516 59.3203 63.5482 58.1182C65.9442 56.7157 68.0406 54.7122 69.7377 52.0074C71.5347 49.3026 72.3333 45.8966 72.3333 41.8895C72.3333 37.8824 71.4349 34.4764 69.6379 31.7716C67.9408 28.9666 65.5448 26.8629 62.7496 25.4604C59.8545 24.0579 56.7597 23.3567 53.3655 23.3567H33V88.8726H37.9915V60.4223H52.3672H52.2673ZM51.9679 55.9143H37.8917V28.1652H51.9679C56.5601 28.1652 60.154 29.2671 62.9492 31.5712C65.6447 33.7751 67.0423 37.1812 67.0423 41.9897C67.0423 46.7982 65.6447 50.3044 62.9492 52.5083C60.2538 54.8124 56.5601 55.9143 51.9679 55.9143Z"
        fill="#202125" />
</svg>